<?xml version="1.0" encoding="UTF-8" standalone="no"?>
<!-- Created with Inkscape (http://www.inkscape.org/) -->

<svg
   xmlns:dc="http://purl.org/dc/elements/1.1/"
   xmlns:cc="http://creativecommons.org/ns#"
   xmlns:rdf="http://www.w3.org/1999/02/22-rdf-syntax-ns#"
   xmlns:svg="http://www.w3.org/2000/svg"
   xmlns="http://www.w3.org/2000/svg"
   xmlns:sodipodi="http://sodipodi.sourceforge.net/DTD/sodipodi-0.dtd"
   xmlns:inkscape="http://www.inkscape.org/namespaces/inkscape"
   width="1024"
   height="768"
   viewBox="0 0 1024 768"
   id="svg4592"
   version="1.1"
   inkscape:version="0.91 r"
   sodipodi:docname="objects.svg">
  <defs
     id="defs4594" />
  <sodipodi:namedview
     id="base"
     pagecolor="#ffffff"
     bordercolor="#666666"
     borderopacity="1.0"
     inkscape:pageopacity="0.0"
     inkscape:pageshadow="2"
     inkscape:zoom="0.70710678"
     inkscape:cx="481.62439"
     inkscape:cy="473.62344"
     inkscape:document-units="px"
     inkscape:current-layer="layer1"
     showgrid="false"
     units="px"
     inkscape:window-width="1325"
     inkscape:window-height="744"
     inkscape:window-x="41"
     inkscape:window-y="24"
     inkscape:window-maximized="1"
     showguides="false"
     inkscape:snap-bbox="true"
     inkscape:snap-bbox-edge-midpoints="true" />
  <metadata
     id="metadata4597">
    <rdf:RDF>
      <cc:Work
         rdf:about="">
        <dc:format>image/svg+xml</dc:format>
        <dc:type
           rdf:resource="http://purl.org/dc/dcmitype/StillImage" />
        <dc:title></dc:title>
      </cc:Work>
    </rdf:RDF>
  </metadata>
  <g
     inkscape:label="Layer 1"
     inkscape:groupmode="layer"
     id="layer1"
     transform="translate(0,-284.36216)">
    <text
       xml:space="preserve"
       style="font-style:normal;font-variant:normal;font-weight:normal;font-stretch:normal;font-size:30px;line-height:125%;font-family:Arial;-inkscape-font-specification:Arial;text-align:center;letter-spacing:0px;word-spacing:0px;text-anchor:middle;fill:#000000;fill-opacity:1;stroke:none;stroke-width:1px;stroke-linecap:butt;stroke-linejoin:miter;stroke-opacity:1"
       x="275"
       y="318.36215"
       id="text5167"
       sodipodi:linespacing="125%"><tspan
         sodipodi:role="line"
         x="275"
         y="318.36215"
         id="tspan5171">Polygon tool: 7 edges, 0,990 spoke</tspan></text>
    <path
       sodipodi:type="star"
       style="opacity:1;fill:#c8c8c8;fill-opacity:1;fill-rule:evenodd;stroke:#000000;stroke-width:1.38499999;stroke-linecap:butt;stroke-linejoin:round;stroke-miterlimit:4;stroke-dasharray:none;stroke-opacity:0.57807306"
       id="path5175"
       sodipodi:sides="7"
       sodipodi:cx="640"
       sodipodi:cy="279"
       sodipodi:r1="50.249378"
       sodipodi:r2="49.746883"
       sodipodi:arg1="1.0269639"
       sodipodi:arg2="1.4757628"
       inkscape:flatsided="false"
       inkscape:rounded="0.5"
       inkscape:randomized="-0.087"
       d="m 662.97139,324.70961 c -9.08858,6.35669 -3.54657,4.1627 -14.48016,4.64667 -10.93358,0.48397 -19.39032,4.21919 -29.58157,-0.75399 -10.19124,-4.97318 -3.14522,-9.47353 -12.19745,-16.6809 -9.05223,-7.20737 -7.94506,-6.85313 -12.63524,-16.45055 -4.69019,-9.59742 -9.8873,-12.40282 -7.25395,-23.46819 2.63334,-11.06537 2.80485,-10.94834 9.2733,-20.13102 6.46845,-9.18269 11.88131,-10.15237 21.51678,-15.1593 9.63547,-5.00694 9.84128,-9.02214 20.77897,-10.46425 10.93769,-1.44211 6.48166,5.77236 16.67725,10.13422 10.19559,4.36185 11.03272,2.22742 18.18528,10.72403 7.15255,8.49662 7.85101,9.74864 11.06073,20.60858 3.20973,10.85994 9.03596,7.71476 7.80101,18.75024 -1.23495,11.03548 -2.25904,9.8194 -8.82717,19.02546 -6.56813,9.20607 -11.2292,12.86232 -20.31778,19.219 z"
       transform="matrix(0.92973837,0,0,0.93874402,178.0305,151.99489)"
       inkscape:transform-center-x="1.1367754"
       inkscape:transform-center-y="0.1902986" />
    <path
       sodipodi:type="star"
       style="opacity:1;fill:#c8c8c8;fill-opacity:1;fill-rule:evenodd;stroke:#000000;stroke-width:1.38499999;stroke-linecap:butt;stroke-linejoin:round;stroke-miterlimit:4;stroke-dasharray:none;stroke-opacity:0.57807306"
       id="path5177"
       sodipodi:sides="7"
       sodipodi:cx="432"
       sodipodi:cy="242"
       sodipodi:r1="45.967381"
       sodipodi:r2="45.507706"
       sodipodi:arg1="0.80078157"
       sodipodi:arg2="1.2495805"
       inkscape:flatsided="false"
       inkscape:rounded="0.5"
       inkscape:randomized="-0.087"
       d="m 467.97447,276.92615 c -7.37163,6.61979 -12.54385,4.59625 -22.21484,7.72878 -9.67099,3.13253 -8.79133,4.30387 -18.85129,2.1256 -10.05997,-2.17827 -10.95851,-0.12061 -18.9112,-6.75574 -7.95269,-6.63514 -5.71136,-4.60418 -11.79181,-13.19584 -6.08045,-8.59167 -6.25204,-7.10324 -7.92937,-17.24993 -1.67733,-10.14669 -6.20873,-11.83532 -1.96047,-21.38243 4.24826,-9.54712 7.26381,-13.5972 14.34691,-20.91537 7.0831,-7.31817 4.41265,-9.99854 14.23699,-12.80218 9.82435,-2.80364 15.41272,-0.82791 25.59009,0.99051 10.17738,1.81842 11.12619,4.13844 19.89921,9.54813 8.77302,5.4097 8.26249,3.89413 13.45059,12.51673 5.1881,8.62259 2.56119,10.56022 3.41003,20.75472 0.84884,10.19449 0.71129,13.01136 -2.90678,22.70623 -3.61808,9.69488 1.00356,9.311 -6.36806,15.93079 z"
       transform="matrix(1.0583774,0,0,1.0398323,216.03683,163.46726)"
       inkscape:transform-center-x="0.93752143"
       inkscape:transform-center-y="-1.5726151" />
    <path
       sodipodi:type="star"
       style="opacity:1;fill:#c8c8c8;fill-opacity:1;fill-rule:evenodd;stroke:#000000;stroke-width:1.38499999;stroke-linecap:butt;stroke-linejoin:round;stroke-miterlimit:4;stroke-dasharray:none;stroke-opacity:0.57807306"
       id="path5179"
       sodipodi:sides="7"
       sodipodi:cx="310"
       sodipodi:cy="292"
       sodipodi:r1="50.249378"
       sodipodi:r2="49.746883"
       sodipodi:arg1="1.0269639"
       sodipodi:arg2="1.4757628"
       inkscape:flatsided="false"
       inkscape:rounded="0.5"
       inkscape:randomized="-0.087"
       d="m 335.46718,334.5333 c -10.12894,5.17204 -12.12775,5.98881 -23.07957,7.98849 -10.95182,1.99969 -9.12963,0.38911 -19.06218,-3.89614 -9.93254,-4.28525 -14.06473,0.7107 -20.94084,-7.93751 -6.87612,-8.64821 -11.01639,-11.72473 -14.41125,-22.05179 -3.39485,-10.32705 1.07341,-10.45665 3.12147,-21.20878 2.04805,-10.75212 2.39455,-12.24614 7.64128,-22.39043 5.24673,-10.14428 3.75404,-8.78008 12.77339,-15.1593 9.01934,-6.37922 11.25775,-2.83324 22.55497,-4.86301 11.29721,-2.02976 12.76888,1.5477 23.64464,4.53298 10.87576,2.98528 9.80414,3.1522 18.18527,10.72404 8.38114,7.57183 9.29503,7.26161 12.83674,17.46642 3.54172,10.2048 0.058,10.94605 -2.71839,21.89239 -2.77639,10.94635 5.17203,5.42727 -0.22775,15.68364 -5.39978,10.25637 -10.18884,14.04696 -20.31778,19.219 z"
       transform="matrix(0.95389956,0,0,0.99663989,178.08825,120.6254)"
       inkscape:transform-center-x="1.4452021"
       inkscape:transform-center-y="1.8903409" />
    <path
       sodipodi:type="star"
       style="opacity:1;fill:#c8c8c8;fill-opacity:1;fill-rule:evenodd;stroke:#000000;stroke-width:1.38499999;stroke-linecap:butt;stroke-linejoin:round;stroke-miterlimit:4;stroke-dasharray:none;stroke-opacity:0.57807306"
       id="path5181"
       sodipodi:sides="7"
       sodipodi:cx="457"
       sodipodi:cy="378"
       sodipodi:r1="48.270073"
       sodipodi:r2="47.787373"
       sodipodi:arg1="0.87340554"
       sodipodi:arg2="1.3222045"
       inkscape:flatsided="false"
       inkscape:rounded="0.5"
       inkscape:randomized="-0.087"
       d="m 484.13332,418.37636 c -8.66125,5.50041 -7.66977,6.51701 -17.68081,9.16644 -10.01103,2.64943 -8.29513,-3.23339 -19.15951,-5.03293 -10.86437,-1.79955 -13.59821,-3.92276 -21.68539,-10.62431 -8.08717,-6.70155 -11.70243,1.81363 -15.7039,-7.77151 -4.00146,-9.58514 -5.88444,-11.16598 -4.66515,-22.13634 1.21929,-10.97036 -0.0112,-10.38725 5.45843,-19.90652 5.4696,-9.51928 4.43169,-15.58486 12.91571,-22.60026 8.48401,-7.0154 10.72215,-1.9827 20.80352,-5.20764 10.08137,-3.22494 9.06958,-1.67543 19.57279,0.65411 10.50321,2.32954 9.72822,-0.87716 18.03609,5.44945 8.30788,6.32661 12.78743,3.83498 18.36551,12.55239 5.57809,8.7174 5.84151,10.87661 6.98885,21.4877 1.14735,10.61109 1.23271,17.43569 -2.81069,27.29461 -4.04341,9.85891 -11.77421,11.17441 -20.43545,16.67481 z"
       transform="matrix(0.9558355,0,0,1.0295534,136.03394,21.984859)"
       inkscape:transform-center-x="0.50945886"
       inkscape:transform-center-y="2.3920187" />
    <path
       sodipodi:type="star"
       style="opacity:1;fill:#c8c8c8;fill-opacity:1;fill-rule:evenodd;stroke:#000000;stroke-width:1.38499999;stroke-linecap:butt;stroke-linejoin:round;stroke-miterlimit:4;stroke-dasharray:none;stroke-opacity:0.57807306"
       id="path5183"
       sodipodi:sides="7"
       sodipodi:cx="487"
       sodipodi:cy="188"
       sodipodi:r1="53.037724"
       sodipodi:r2="52.507343"
       sodipodi:arg1="0.77206562"
       sodipodi:arg2="1.2208646"
       inkscape:flatsided="false"
       inkscape:rounded="0.5"
       inkscape:randomized="-0.087"
       d="m 521.73707,228.62764 c -8.39618,7.79124 -1.84436,1.54364 -13.22488,4.19243 -11.38052,2.64878 -18.64146,12.26655 -29.95644,10.21903 -11.31499,-2.04752 -5.42156,-4.79702 -15.31983,-11.04632 -9.89827,-6.2493 -8.61221,-10.13471 -16.28952,-19.43805 -7.67731,-9.30335 -13.52027,-2.19172 -13.39923,-14.05382 0.12104,-11.86211 0.97794,-12.01158 3.8581,-22.93114 2.88017,-10.91956 8.46538,-15.93026 16.38532,-24.18882 7.91994,-8.25856 1.38073,-11.25957 11.97157,-16.40902 10.59084,-5.14946 17.75641,-0.15192 29.32793,0.091 11.57152,0.24291 5.07553,3.05258 15.06418,9.3823 9.98864,6.32971 12.51524,1.63651 18.94597,11.58116 6.43073,9.94465 11.24909,13.94204 12.90528,25.63737 1.65619,11.69533 0.70343,8.44725 -3.92152,18.98962 -4.62495,10.54236 -7.95074,20.18302 -16.34693,27.97426 z"
       transform="matrix(0.90412697,0,0,0.89246795,-268.97795,245.76196)"
       inkscape:transform-center-x="-1.6446824"
       inkscape:transform-center-y="0.53171417" />
    <path
       sodipodi:type="star"
       style="opacity:1;fill:#c8c8c8;fill-opacity:1;fill-rule:evenodd;stroke:#000000;stroke-width:1.38499999;stroke-linecap:butt;stroke-linejoin:round;stroke-miterlimit:4;stroke-dasharray:none;stroke-opacity:0.57807306"
       id="path5185"
       sodipodi:sides="7"
       sodipodi:cx="655"
       sodipodi:cy="144"
       sodipodi:r1="53.740116"
       sodipodi:r2="53.202713"
       sodipodi:arg1="0.78539816"
       sodipodi:arg2="1.2341971"
       inkscape:flatsided="false"
       inkscape:rounded="0.5"
       inkscape:randomized="-0.087"
       d="m 695.27082,184.63186 c -8.97554,8.49337 -10.14309,4.33022 -22.03207,7.67493 -11.88898,3.34471 -12.17794,8.30228 -23.59884,6.41597 -11.42089,-1.88631 -14.39512,-3.42253 -24.47881,-9.67988 -10.08369,-6.25736 -9.60727,-9.70228 -14.44251,-20.06825 -4.83524,-10.36597 -5.16024,-3.87792 -6.37172,-15.76577 -1.21149,-11.88785 -5.562,-13.23969 -2.26973,-25.16958 3.29226,-11.9299 5.60579,-11.37126 14.12573,-19.98175 8.51993,-8.610485 7.34912,-8.410102 18.90508,-12.815909 11.55595,-4.405806 17.48427,-6.182951 29.35473,-4.910601 11.87047,1.272351 8.2446,1.428797 19.00083,6.741371 10.75622,5.312569 12.57456,9.901759 19.30059,19.670309 6.72602,9.76855 2.63848,5.5282 4.56217,17.52592 1.92368,11.99772 -0.23038,16.33849 -4.63428,27.71199 -4.40389,11.37351 1.55438,14.15789 -7.42117,22.65125 z"
       transform="matrix(0.92137578,0,0,0.9043121,-330.61993,282.83464)"
       inkscape:transform-center-x="0.50569762"
       inkscape:transform-center-y="0.48255251" />
    <path
       sodipodi:type="star"
       style="opacity:1;fill:#c8c8c8;fill-opacity:1;fill-rule:evenodd;stroke:#000000;stroke-width:1.38499999;stroke-linecap:butt;stroke-linejoin:round;stroke-miterlimit:4;stroke-dasharray:none;stroke-opacity:0.57807306"
       id="path5187"
       sodipodi:sides="7"
       sodipodi:cx="756"
       sodipodi:cy="179"
       sodipodi:r1="53.75872"
       sodipodi:r2="53.221134"
       sodipodi:arg1="0.81170788"
       sodipodi:arg2="1.2605068"
       inkscape:flatsided="false"
       inkscape:rounded="0.5"
       inkscape:randomized="-0.087"
       d="m 797.09659,215.90236 c -9.3364,7.63166 -15.75275,6.08041 -26.43702,10.70764 -10.68427,4.62723 -7.55797,5.82153 -18.91189,3.91744 -11.35392,-1.90408 -19.71094,-1.381 -29.24283,-7.6272 -9.5319,-6.24621 -9.53837,-4.29304 -16.75045,-14.12717 -7.21209,-9.83413 -3.73951,-14.15518 -4.66414,-26.51577 -0.92463,-12.3606 4.21957,-10.12868 9.14344,-20.83199 4.92388,-10.7033 4.6461,-15.28142 12.57333,-24.2357 7.92723,-8.95429 3.79441,-9.51585 15.82119,-12.08883 12.02679,-2.57299 17.32869,0.77169 28.51559,3.69601 11.18691,2.92432 9.99531,-2.51652 20.93167,2.88921 10.93635,5.40573 7.87984,6.45691 13.97985,17.15989 6.10001,10.70298 8.35788,9.36427 9.41378,21.44311 1.05589,12.07884 3.84112,17.50243 -1.60433,28.18611 -5.44545,10.68368 -3.43178,9.79559 -12.76819,17.42725 z"
       transform="matrix(0.88061537,0,0,0.92034545,-294.3146,249.90843)"
       inkscape:transform-center-x="-0.92721777"
       inkscape:transform-center-y="-1.1149364" />
    <path
       sodipodi:type="star"
       style="opacity:1;fill:#c8c8c8;fill-opacity:1;fill-rule:evenodd;stroke:#000000;stroke-width:1.38499999;stroke-linecap:butt;stroke-linejoin:round;stroke-miterlimit:4;stroke-dasharray:none;stroke-opacity:0.57807306"
       id="path5189"
       sodipodi:sides="7"
       sodipodi:cx="253"
       sodipodi:cy="195"
       sodipodi:r1="47.423622"
       sodipodi:r2="46.949387"
       sodipodi:arg1="0.74065193"
       sodipodi:arg2="1.1894509"
       inkscape:flatsided="false"
       inkscape:rounded="0.5"
       inkscape:randomized="-0.087"
       d="m 287.59083,227.97653 c -6.44088,7.8073 -11.02803,3.1429 -20.22002,8.37719 -9.19199,5.23429 -9.18319,9.03459 -19.33861,9.72532 -10.15542,0.69073 -11.11339,-1.27039 -19.97042,-6.55142 -8.85703,-5.28103 -6.80029,-5.25527 -13.80285,-13.58392 -7.00257,-8.32866 -7.54815,-9.30262 -8.27468,-19.59641 -0.72653,-10.29378 -2.33845,-15.67629 -0.69676,-25.62932 1.64169,-9.95302 4.62352,-8.20708 11.08183,-16.10186 6.45831,-7.89477 11.86367,-5.77732 21.50097,-10.42183 9.6373,-4.6445 6.26103,-4.75794 16.64161,-3.43672 10.38058,1.32123 16.23769,0.26282 25.20323,5.61607 8.96553,5.35324 8.52219,4.10216 14.01935,12.56172 5.49716,8.45956 6.6198,11.40359 7.49982,21.60413 0.88001,10.20054 -3.11335,4.52674 -5.71626,14.61141 -2.60292,10.08466 -1.48634,15.01834 -7.92721,22.82564 z"
       transform="matrix(1.0185951,0,0,1.0250796,-185.29352,210.44936)"
       inkscape:transform-center-x="0.033726833"
       inkscape:transform-center-y="3.1990802" />
  </g>
</svg>
